<?xml version="1.0" standalone="no"?>
<!DOCTYPE svg PUBLIC "-//W3C//DTD SVG 1.1//EN" "http://www.w3.org/Graphics/SVG/1.1/DTD/svg11.dtd" >
<!--
2013-9-30: Created.
-->
<svg>
<metadata>
Created by iconfont
</metadata>
<defs>

<font id="zppiconfont" horiz-adv-x="1024" >
  <font-face
    font-family="zppiconfont"
    font-weight="500"
    font-stretch="normal"
    units-per-em="1024"
    ascent="896"
    descent="-128"
  />
    <missing-glyph />
    
    <glyph glyph-name="arrowup16" unicode="&#58882;" d="M896.2 237.1 512 621.1l-45.5-45.2 0.1-0.1L128 237.2l45.2-45.3L512 530.4l338.9-338.5L896.2 237.1z"  horiz-adv-x="1024" />

    
    <glyph glyph-name="shangchuanchenggong" unicode="&#58934;" d="M511.936 893.376C230.656 893.376 2.624 665.344 2.624 384s228.032-509.376 509.376-509.376 509.376 228.032 509.376 509.376-228.096 509.376-509.44 509.376z m-29.632-719.488l-14.784-14.912-224.192 226.048 59.2 59.648 164.992-166.4 284.16 286.336 59.2-59.648-328.576-331.072z"  horiz-adv-x="1024" />

    
    <glyph glyph-name="shangchuanshibai" unicode="&#58936;" d="M512 896C228.2752 896 0 667.7248 0 384s228.2752-512 512-512 512 228.2752 512 512S795.7248 896 512 896z m51.2-797.8752h-102.4v102.4h102.4v-102.4z m0 187.7504h-102.4v384h102.4v-384z"  horiz-adv-x="1024" />

    
    <glyph glyph-name="arrowleft" unicode="&#59180;" d="M748.8 723.2L409.6 384l339.2-339.2-44.8-44.8-339.2 339.2L320 384l384 384 44.8-44.8z"  horiz-adv-x="1024" />

    
    <glyph glyph-name="dianjichakan" unicode="&#58985;" d="M880.429 442.826c9.328-5.592 15.571-15.8 15.571-27.466 0-0.59-0.016-1.175-0.047-1.756 0.508-8.797-2.598-17.765-9.32-24.486l-277.75-277.752c-12.498-12.497-32.759-12.497-45.256 0-12.496 12.497-12.496 32.758 0 45.255L790.366 383.36H97c-17.673 0-32 14.326-32 32 0 17.673 14.327 32 32 32h688.386L563.627 669.1179999999999c-12.496 12.497-12.496 32.758 0 45.255 12.497 12.496 32.758 12.496 45.255 0L880.43 442.826z"  horiz-adv-x="1024" />

    
    <glyph glyph-name="shanchu" unicode="&#59006;" d="M56.896 668.416H967.04v-56.832H56.96zM170.688 668.416h682.624V-71.04H170.688V668.416z m56.896-56.832v-625.792h568.832V611.584H227.584zM398.208 554.688h56.96v-512h-56.96v512z m170.688 0h56.896v-512h-56.96v512zM284.416 839.04h455.168v-227.52H284.416V839.04z m56.96-56.896v-113.792h341.312V782.208H341.312z"  horiz-adv-x="1024" />

    
    <glyph glyph-name="close" unicode="&#58923;" d="M513.344 896a512 512 0 1 1 0-1024 512 512 0 0 1 0 1024z m226.048-674.624l-54.528-56.896-171.52 164.928-171.392-164.928-54.592 56.896L456.576 384 287.36 546.688l54.592 56.768 171.392-164.8 171.52 164.8 54.528-56.768L570.176 384l169.216-162.624z"  horiz-adv-x="1025" />

    
    <glyph glyph-name="baseline-close-px" unicode="&#58902;" d="M810.666667 622.506667L750.506667 682.666667 512 444.16 273.493333 682.666667 213.333333 622.506667 451.84 384 213.333333 145.493333 273.493333 85.333333 512 323.84 750.506667 85.333333 810.666667 145.493333 572.16 384z"  horiz-adv-x="1024" />

    
    <glyph glyph-name="tupian" unicode="&#58918;" d="M313.6 460.8c44.8 0 76.8 38.4 76.8 76.8 0 44.8-38.4 76.8-76.8 76.8-44.8 0-76.8-38.4-76.8-76.8s32-76.8 76.8-76.8z m0 0M672 512l-230.4-326.4-128 166.4-198.4-281.6h787.2L672 512z m0 0M985.6 832H38.4c-19.2 0-38.4-19.2-38.4-38.4v-819.2c0-19.2 19.2-38.4 38.4-38.4h947.2c19.2 0 38.4 19.2 38.4 38.4V793.6c0 19.2-19.2 38.4-38.4 38.4z m-38.4-819.2H76.8V755.2h864v-742.4z m0 0"  horiz-adv-x="1024" />

    
    <glyph glyph-name="wenbenshurukuang" unicode="&#58919;" d="M793.6 640H230.4c-19.2 0-38.4-19.2-38.4-44.8V512c0-25.6 19.2-44.8 38.4-44.8s38.4 19.2 38.4 44.8v44.8h160v-339.2h-38.4c-19.2 0-38.4-19.2-38.4-44.8 0-25.6 19.2-44.8 38.4-44.8h236.8c19.2 0 38.4 19.2 38.4 44.8 0 25.6-19.2 44.8-38.4 44.8h-32V556.8h160V512c0-25.6 19.2-44.8 38.4-44.8s38.4 19.2 38.4 44.8V595.2c0 25.6-19.2 44.8-38.4 44.8zM992 12.8V755.2c19.2 12.8 32 32 32 64 0 38.4-38.4 76.8-76.8 76.8-25.6 0-51.2-12.8-64-32H140.8C128 883.2 108.8 896 76.8 896 38.4 896 0 857.6 0 819.2c0-25.6 12.8-51.2 32-64v-736c-19.2-19.2-32-38.4-32-70.4 0-38.4 38.4-76.8 76.8-76.8 25.6 0 51.2 12.8 64 32h736c12.8-19.2 38.4-32 64-32 44.8 0 76.8 38.4 76.8 76.8 6.4 32-6.4 51.2-25.6 64z m-64 19.2c-32-6.4-57.6-32-64-64h-704c-6.4 32-32 57.6-64 64v704c32 6.4 57.6 32 64 64h710.4c6.4-32 32-57.6 64-64v-704z"  horiz-adv-x="1024" />

    
    <glyph glyph-name="wenzi" unicode="&#58920;" d="M595.2 832H64v-281.6h57.6c0 140.8 108.8 198.4 236.8 198.4 25.6 0 44.8-6.4 70.4-12.8v-659.2c0-44.8-38.4-83.2-83.2-83.2H230.4v-57.6h563.2v57.6h-115.2c-44.8 0-83.2 38.4-83.2 83.2V736c19.2 6.4 44.8 12.8 70.4 12.8 128 0 236.8-57.6 236.8-198.4h57.6V832H595.2z"  horiz-adv-x="1024" />

    
    <glyph glyph-name="xialacaidan" unicode="&#58921;" d="M460.8 160c32-38.4 76.8-38.4 108.8 0l313.6 409.6c25.6 38.4 12.8 70.4-32 70.4H172.8c-44.8 0-57.6-32-25.6-70.4l313.6-409.6z"  horiz-adv-x="1024" />

    
    <glyph glyph-name="biaoge" unicode="&#58922;" d="M0 896v-1024h1024V896H0z m320-960H64v192h256v-192z m0 256H64V384h256v-192z m0 256H64V640h256v-192z m320-512H384v192h256v-192z m0 256H384V384h256v-192z m0 256H384V640h256v-192z m320-512h-256v192h256v-192z m0 256h-256V384h256v-192z m0 256h-256V640h256v-192z"  horiz-adv-x="1024" />

    
    <glyph glyph-name="liuchengjiantou" unicode="&#58924;" d="M812.8 332.8H608V851.2c0 6.4-6.4 12.8-19.2 12.8H428.8c-6.4 0-19.2-6.4-19.2-12.8v-518.4H211.2c-19.2 0-25.6-12.8-19.2-25.6l300.8-396.8c6.4-6.4 19.2-6.4 25.6 0L832 307.2c6.4 12.8 0 25.6-19.2 25.6z"  horiz-adv-x="1024" />

    
    <glyph glyph-name="huizhi" unicode="&#59046;" d="M851.299 115.55499999999995H659c-19.2 0-32 12.8-32 32s12.8 32 32 32h191.29l-58.817 58.818c-12.497 12.496-12.497 32.758 0 45.254 12.497 12.497 32.758 12.497 45.255 0l112.44-112.44c0.532-0.466 1.051-0.952 1.558-1.46 12.497-12.496 12.497-32.757 0-45.254L836.882 10.629999999999995c-12.497-12.497-32.758-12.497-45.255 0-12.496 12.497-12.496 32.758 0 45.255l59.672 59.671zM576-51.200000000000045H192c-38.4 0-64 25.6-64 64V755.2c0 38.4 25.6 64 64 64h652.8c38.4 0 64-25.6 64-64v-313.6c0-19.2-12.8-32-32-32s-32 12.8-32 32V755.2H192v-742.4h377.6c19.2 0 38.4-12.8 38.4-32s-19.2-32-32-32zM672 556.8H345.6c-19.2 0-32 12.8-32 32s12.8 32 32 32H672c19.2 0 32-12.8 32-32s-12.8-32-32-32z m-96-185.6H345.6c-19.2 0-32 12.8-32 32s12.8 32 32 32H576c12.8 0 32-12.8 32-32s-19.2-32-32-32z m-70.4-192h-160c-19.2 0-32 12.8-32 32s12.8 32 32 32h160c19.2 0 32-12.8 32-32s-19.2-32-32-32z"  horiz-adv-x="1024" />

    
    <glyph glyph-name="yifahuizhi" unicode="&#59047;" d="M576-51.2H192c-38.4 0-64 25.6-64 64V755.2c0 38.4 25.6 64 64 64h652.8c38.4 0 64-25.6 64-64v-313.6c0-19.2-12.8-32-32-32s-32 12.8-32 32V755.2H192v-742.4h377.6c19.2 0 38.4-12.8 38.4-32s-19.2-32-32-32zM672 556.8H345.6c-19.2 0-32 12.8-32 32s12.8 32 32 32H672c19.2 0 32-12.8 32-32s-12.8-32-32-32z m-96-185.6H345.6c-19.2 0-32 12.8-32 32s12.8 32 32 32H576c12.8 0 32-12.8 32-32s-19.2-32-32-32z m-70.4-192h-160c-19.2 0-32 12.8-32 32s12.8 32 32 32h160c19.2 0 32-12.8 32-32s-19.2-32-32-32zM730.671 98.181l214.955 214.956c12.497 12.496 32.758 12.496 45.255 0 12.497-12.497 12.497-32.758 0-45.255L751.645 28.645c-10.19-10.189-25.54-12.07-37.636-5.644a31.881 31.881 0 0 0-10.814 8.359L597.778 156.99c-11.36 13.54-9.594 33.723 3.944 45.083 13.539 11.36 33.723 9.595 45.083-3.944l83.866-99.948z"  horiz-adv-x="1024" />

    
    <glyph glyph-name="xiayi" unicode="&#59051;" d="M562.674-61.26700000000005A31.85 31.85 0 0 0 545.917-66c-10.324 0-19.506 4.89-25.357 12.478l-334.581 334.58c-12.497 12.498-12.497 32.759 0 45.256s32.758 12.497 45.255 0L513.917 43.629999999999995V802c0 17.673 14.327 32 32 32 17.673 0 32-14.327 32-32v-759.149l283.657 283.657c12.497 12.497 32.758 12.497 45.255 0 12.497-12.496 12.497-32.758 0-45.255l-337.29-337.29a32.031 32.031 0 0 0-6.865-5.23z"  horiz-adv-x="1024" />

    
    <glyph glyph-name="xiangqing" unicode="&#58893;" d="M832 832H192C122.304 832 64 768 64 704v-704c0-73.856 58.304-128 128-128h640c69.696 0 128 64 128 128V704c1.344 97.856-58.304 128-128 128z m64-832s-0.128-64-64-64H192s-64-9.856-64 64V704s0.128 64 64 64h640c63.872 0 64-64 64-64v-704z m-64 512H192V576h640v-64z m0-192H192V384h640v-64z m0-192H192v64h640v-64z"  horiz-adv-x="1024" />

    
    <glyph glyph-name="tianjia1" unicode="&#58996;" d="M512 448V800c0 17.673 14.327 32 32 32 17.673 0 32-14.327 32-32v-352h352c17.673 0 32-14.327 32-32 0-17.673-14.327-32-32-32H576v-352c0-17.673-14.327-32-32-32-17.673 0-32 14.327-32 32V384H160c-17.673 0-32 14.327-32 32 0 17.673 14.327 32 32 32h352z"  horiz-adv-x="1024" />

    
    <glyph glyph-name="chakan" unicode="&#59009;" d="M698.172 406.85c0.81-9.11-2.272-18.503-9.246-25.477L380.627 73.074c-12.496-12.497-32.758-12.497-45.254 0-12.497 12.497-12.497 32.758 0 45.255L623.894 406.85 335.373 695.373c-12.497 12.496-12.497 32.758 0 45.254 12.496 12.497 32.758 12.497 45.254 0L688.926 432.33c6.974-6.974 10.056-16.367 9.246-25.478z"  horiz-adv-x="1024" />

    
    <glyph glyph-name="tianjia2-copy" unicode="&#59258;" d="M512 383V719c0 17.673 14.327 32 32 32 17.673 0 32-14.327 32-32v-336h336c17.673 0 32-14.327 32-32 0-17.673-14.327-32-32-32H576v-336c0-17.673-14.327-32-32-32-17.673 0-32 14.327-32 32V319H176c-17.673 0-32 14.327-32 32 0 17.673 14.327 32 32 32h336z"  horiz-adv-x="1024" />

    
    <glyph glyph-name="qianming" unicode="&#58889;" d="M896 576v-96c0-17.673-14.327-32-32-32h-0.083C846.29 448 832 462.29 832 479.916v0.167l0.502 95.917H832V768H192v-768h257v-0.061C465.741-1.094 479-15 479-32c0-17.001-13.259-30.906-30-31.939V-64H192c-35.346 0-64 28.654-64 64V768c0 35.346 28.654 64 64 64h640c35.346 0 64-28.654 64-64v-192z m-580.924 65l356-0.848c17.644-0.042 31.924-14.356 31.924-32v-0.076c0-17.673-14.327-32-32-32H315c-17.673 0-32 14.327-32 32V609c0 17.673 14.327 32 32 32h0.076zM315 448h165c17.673 0 32-14.327 32-32 0-17.673-14.327-32-32-32H315c-17.673 0-32 14.327-32 32 0 17.673 14.327 32 32 32z m0-192h64c17.673 0 32-14.327 32-32 0-17.673-14.327-32-32-32h-64c-17.673 0-32 14.327-32 32 0 17.673 14.327 32 32 32z m524.75-56c-13.3 14.942-29.85 31.51-49.75 48.18L811.626 268c19.9-16.568 36.45-31.51 51.374-46.451L839.75 200zM616.733 309.654h126.064v-29.793H598.332c-18.3-28.171-39.853-52.999-59.78-72.861-6.607 8.208-13.216 16.518-21.552 26.449 31.618 31.516 61.507 71.24 83.06 117.551h38.226c-6.609-14.897-14.945-28.07-21.553-41.346z m270.064-235.99c-19.933-34.939-39.865-69.878-59.797-103.086h108V-61H533v31.578h257.39c24.915 41.56 46.576 81.491 63.152 121.422l33.255-18.336zM576 69l28.032 15c18.216-28.367 33.092-58.367 47.968-88.367L622.248-21c-13.156 31.633-28.032 61.633-46.248 90z m68.522 136c-11.565 16.536-24.855 31.45-36.522 46.464L631.232 268c13.29-13.29 26.478-26.58 39.768-43.116L644.522 205z m83.11-212c-6.734 34.792-15 67.962-26.632 97.682L731 99c11.633-31.445 21.633-64.614 30-96.06L727.633-7z m89.787 316.515H957v-29.995H799.106c-8.24-11.591-14.955-23.182-21.568-31.52-11.598 6.61-21.568 11.591-31.538 14.947 23.297 24.91 39.88 54.804 54.836 88.053h36.523c-6.613-14.947-13.328-28.165-19.94-41.485zM640.07 128.805c-29.925-18.296-61.478-34.864-96.493-49.805-6.616 11.587-14.962 21.548-21.578 29.883C605.159 142.018 674.983 185.215 729.846 240h43.258l-8.346-9.96C816.363 176.88 881.2 140.39 961 120.47c-8.346-11.587-16.693-23.276-23.309-34.863-33.284 11.688-63.209 24.902-93.133 43.197v-24.902H640.07v24.902z m106.108 78.06c-28.296-26.63-59.85-51.532-96.492-73.08h187.896c-33.182 19.921-63.107 44.824-91.404 73.08z"  horiz-adv-x="1024" />

    
    <glyph glyph-name="zhaopian" unicode="&#58891;" d="M896 800H128C57.6 800 0 742.4 0 672v-576c0-70.4 57.6-128 128-128h768c70.4 0 128 57.6 128 128V672c0 70.4-57.6 128-128 128z m64-704c0-35.2-28.8-64-64-64H128c-35.2 0-64 28.8-64 64v57.6l291.2 291.2 310.4-310.4 160 160L960 160v-64z m0 153.6L825.6 384l-160-160-310.4 310.4L64 243.2V672c0 35.2 28.8 64 64 64h768c35.2 0 64-28.8 64-64v-422.4zM768 681.6c-60.8 0-112-51.2-112-112s51.2-112 112-112 112 51.2 112 112-51.2 112-112 112z m0-160c-25.6 0-48 22.4-48 48s22.4 48 48 48 48-22.4 48-48-22.4-48-48-48z"  horiz-adv-x="1024" />

    
    <glyph glyph-name="paiwendang" unicode="&#58894;" d="M638.006231 698.218069c0 19.140187-12.760125 31.900312-31.900312 31.900311H223.302181c-19.140187 0-31.900312-12.760125-31.900312-31.900311s12.760125-31.900312 31.900312-31.900312h382.803738c19.140187 0 31.900312 12.760125 31.900312 31.900312zM223.302181 548.286604c-19.140187 0-31.900312-12.760125-31.900312-31.900311s12.760125-31.900312 31.900312-31.900312h255.202492c19.140187 0 31.900312 12.760125 31.900311 31.900312s-12.760125 31.900312-31.900311 31.900311H223.302181zM229.682243 2.791277H127.601246c-35.090343 0-63.800623 28.71028-63.800623 63.800623V768.398754c0 35.090343 28.71028 63.800623 63.800623 63.800623h574.205608c35.090343 0 63.800623-28.71028 63.800623-63.800623v-229.682243c0-19.140187 12.760125-31.900312 31.900311-31.900312s31.900312 12.760125 31.900312 31.900312V768.398754c0 70.180685-57.420561 127.601246-127.601246 127.601246H127.601246C57.420561 896 0 838.579439 0 768.398754v-701.806854c0-70.180685 57.420561-127.601246 127.601246-127.601246h102.080997c19.140187 0 31.900312 12.760125 31.900312 31.900312s-12.760125 31.900312-31.900312 31.900311zM931.489097 360.074766h-95.700935l-6.380062 22.330218c-9.570093 38.280374-44.660436 66.990654-79.750779 66.990655h-156.311527c-35.090343 0-70.180685-28.71028-79.750778-66.990655l-6.380063-22.330218h-95.700934c-51.040498 0-89.320872-38.280374-89.320873-86.130841v-315.813084c0-47.850467 41.470405-86.130841 89.320873-86.130841h523.165109c51.040498 0 89.320872 38.280374 89.320872 86.130841v315.813084c-3.190031 47.850467-44.660436 86.130841-92.510903 86.130841z m25.520249-398.753894c0-12.760125-12.760125-22.330218-25.520249-22.330218H408.323988c-12.760125 0-25.520249 9.570093-25.52025 22.330218v315.813084c0 12.760125 12.760125 22.330218 25.52025 22.330218h143.551401l19.140187 70.180686c3.190031 12.760125 12.760125 19.140187 19.140187 19.140187h156.311527c6.380062 0 15.950156-6.380062 19.140187-19.140187l19.140187-70.180686h143.551401c12.760125 0 25.520249-9.570093 25.52025-22.330218v-315.813084zM669.906542 257.993769c-73.370717 0-133.981308-60.610592-133.981308-133.981308s60.610592-133.981308 133.981308-133.981308 133.981308 60.610592 133.981308 133.981308S743.277259 257.993769 669.906542 257.993769z m0-204.161993c-38.280374 0-70.180685 31.900312-70.180685 70.180685s31.900312 70.180685 70.180685 70.180685 70.180685-31.900312 70.180685-70.180685-31.900312-70.180685-70.180685-70.180685zM870.878505 226.093458m-31.900312 0a31.900312 31.900312 0 1 1 63.800623 0 31.900312 31.900312 0 1 1-63.800623 0Z"  horiz-adv-x="1027" />

    
    <glyph glyph-name="xinjianwenjianjia1" unicode="&#58895;" d="M893.208723 768.398754H446.604361c0 70.180685-57.420561 127.601246-127.601246 127.601246H127.601246c-70.180685 0-127.601246-57.420561-127.601246-127.601246V-0.398754c0-70.180685 57.420561-127.601246 127.601246-127.601246h765.607477c70.180685 0 127.601246 57.420561 127.601246 127.601246V640.797508c0 70.180685-57.420561 127.601246-127.601246 127.601246z m63.800623-771.987539c0-35.090343-28.71028-63.800623-63.800623-63.800623H127.601246c-35.090343 0-63.800623 28.71028-63.800623 63.800623V576.996885h893.208723v-580.58567zM63.800623 640.797508v127.601246c0 35.090343 28.71028 63.800623 63.800623 63.800623h191.401869c35.090343 0 63.800623-28.71028 63.800623-63.800623v-25.520249c0-22.330218 15.950156-38.280374 38.280374-38.280374H893.208723c35.090343 0 63.800623-28.71028 63.800623-63.800623H63.800623zM350.903427 324.984424c-15.950156 0-31.900312-12.760125-31.900312-31.900312 0-15.950156 12.760125-31.900312 31.900312-31.900311h127.601246v-127.601246c0-15.950156 15.950156-31.900312 31.900311-31.900312s31.900312 15.950156 31.900312 31.900312v127.601246h127.601246c15.950156 0 31.900312 15.950156 31.900312 31.900311 0 19.140187-12.760125 31.900312-31.900312 31.900312h-127.601246v127.601246c0 19.140187-15.950156 31.900312-31.900312 31.900311s-31.900312-12.760125-31.900311-31.900311v-127.601246h-127.601246z"  horiz-adv-x="1024" />

    
    <glyph glyph-name="saoyisao" unicode="&#58898;" d="M960 128v-128c0-35.2-28.8-64-64-64h-128c-19.2 0-32-12.8-32-32s12.8-32 32-32h128c70.4 0 128 57.6 128 128v128c0 19.2-12.8 32-32 32s-32-12.8-32-32zM64 0v128c0 19.2-12.8 32-32 32s-32-12.8-32-32v-128c0-70.4 57.6-128 128-128h128c19.2 0 32 12.8 32 32s-12.8 32-32 32H128c-35.2 0-64 28.8-64 64zM896 896h-128c-19.2 0-32-12.8-32-32s12.8-32 32-32h128c35.2 0 64-28.8 64-64v-128c0-19.2 12.8-32 32-32s32 12.8 32 32V768c0 70.4-57.6 128-128 128zM128 896C57.6 896 0 838.4 0 768v-128c0-19.2 12.8-32 32-32s32 12.8 32 32V768c0 35.2 28.8 64 64 64h128c19.2 0 32 12.8 32 32s-12.8 32-32 32H128zM992 336H32c-19.2 0-32 16-32 32 0 19.2 16 32 32 32h960c19.2 0 32-16 32-32s-16-32-32-32z"  horiz-adv-x="1024" />

    
    <glyph glyph-name="chuangjianrenwu" unicode="&#58899;" d="M896 748.8h-64V787.2c0 51.2-41.6 96-96 96s-96-44.8-96-96v-35.2h-256V787.2c0 51.2-41.6 96-96 96s-96-44.8-96-96v-35.2H128c-70.4 0-128-54.4-128-121.6v-617.6c0-67.2 57.6-124.8 128-124.8h768c70.4 0 128 54.4 128 124.8V627.2c0 67.2-57.6 121.6-128 121.6z m-192-60.8V787.2c0 16 16 32 32 32s32-16 32-32v-124.8c0-16-16-32-32-32s-32 16-32 32v25.6z m-448 0V787.2c0 16 16 32 32 32s32-16 32-32v-124.8c0-16-16-32-32-32S256 640 256 659.2v28.8z m704-678.4c0-35.2-28.8-60.8-64-60.8H128c-35.2 0-64 28.8-64 60.8V627.2c0 35.2 28.8 60.8 64 60.8h64v-28.8c0-54.4 41.6-96 96-96s96 41.6 96 96v28.8h256v-28.8c0-54.4 41.6-96 96-96s96 41.6 96 96v28.8h64c35.2 0 64-28.8 64-60.8v-617.6zM713.6 448l-252.8-236.8-150.4 144c-12.8 12.8-32 12.8-44.8 0-12.8-12.8-12.8-32 0-44.8l172.8-166.4c6.4-6.4 16-9.6 22.4-9.6 9.6 0 16 3.2 22.4 9.6l275.2 259.2c12.8 12.8 12.8 32 0 44.8-12.8 12.8-32 12.8-44.8 0z"  horiz-adv-x="1024" />

    
    <glyph glyph-name="fasixin" unicode="&#58900;" d="M896 800H128C57.6 800 0 742.4 0 672v-576c0-70.4 57.6-128 128-128h768c70.4 0 128 57.6 128 128V672c0 70.4-57.6 128-128 128z m64-128v-576c0-6.4 0-9.6-3.2-16l-291.2 316.8 288 291.2c6.4-3.2 6.4-9.6 6.4-16z m-64 64c6.4 0 9.6 0 16-3.2L512 332.8 112 732.8c3.2 3.2 9.6 3.2 16 3.2h768zM64 83.2V672c0 6.4 0 9.6 3.2 16l288-291.2L64 83.2zM128 32c-6.4 0-12.8 0-19.2 3.2l291.2 316.8 67.2-67.2c25.6-25.6 67.2-25.6 89.6 0l67.2 67.2 291.2-316.8c-6.4-3.2-12.8-3.2-19.2-3.2H128z"  horiz-adv-x="1024" />

    
    <glyph glyph-name="zuzhi" unicode="&#59042;" d="M224 448h256V576h-32c-35.346 0-64 28.654-64 64V768c0 35.346 28.654 64 64 64h128c35.346 0 64-28.654 64-64v-128c0-35.346-28.654-64-64-64h-32v-128h256c35.181-0.194 63.642-28.773 63.642-64H864v-128h32c35.346 0 64-28.654 64-64v-128c0-35.346-28.654-64-64-64H768c-35.346 0-64 28.654-64 64V192c0 35.346 28.654 64 64 64h32V383.813l-0.358 0.187H544v-128h32c35.346 0 64-28.654 64-64v-128c0-35.346-28.654-64-64-64H448c-35.346 0-64 28.654-64 64V192c0 35.346 28.654 64 64 64h32V384H224v-128h32c35.346 0 64-28.654 64-64v-128c0-35.346-28.654-64-64-64H128c-35.346 0-64 28.654-64 64V192c0 35.346 28.654 64 64 64h32V386h0.03c1.057 34.42 29.293 62 63.97 62z m224 320v-128h128V768H448zM128 192v-128h128V192H128z m320 0v-128h128V192H448z m320 0v-128h128V192H768z"  horiz-adv-x="1024" />

    
    <glyph glyph-name="danxuankuang" unicode="&#58901;" d="M512 896C230.4 896 0 665.6 0 384s230.4-512 512-512 512 230.4 512 512-230.4 512-512 512z m0-940.8c-236.8 0-435.2 192-435.2 435.2 0 236.8 192 435.2 435.2 435.2 236.8 0 435.2-192 435.2-435.2s-198.4-435.2-435.2-435.2z m0 627.2C403.2 582.4 313.6 492.8 313.6 384s89.6-198.4 198.4-198.4 198.4 89.6 198.4 198.4S620.8 582.4 512 582.4z m0 0"  horiz-adv-x="1024" />

    
    <glyph glyph-name="fujian1" unicode="&#58903;" d="M607.850234 531.769111c12.780031 12.780031 12.780031 38.340094 0 57.51014-12.780031 12.780031-38.340094 12.780031-57.51014 0l-255.600624-242.820593c-31.950078-25.560062-44.730109-63.900156-44.73011-108.630265 0-38.340094 19.170047-76.680187 44.73011-108.630265 63.900156-57.51014 166.140406-57.51014 230.040561 0l396.180967 377.01092c89.460218 89.460218 89.460218 230.040562 0 319.50078s-242.820593 89.460218-338.670826 0L128.599064 397.578783c-127.800312-121.410296-127.800312-313.110764 0-434.521061 127.800312-121.410296 325.890796-121.410296 453.691108 0l255.600624 242.820593c12.780031 12.780031 12.780031 38.340094 0 57.510141-12.780031 12.780031-38.340094 12.780031-57.510141 0l-255.600624-242.820593c-89.460218-89.460218-242.820593-89.460218-338.670827 0s-89.460218 230.040562 0 319.50078L639.800312 774.589704c63.900156 57.51014 166.140406 57.51014 230.040562 0s63.900156-153.360374 0-210.870515l-396.180968-377.010921c-31.950078-31.950078-83.070203-31.950078-115.02028 0s-31.950078 76.680187 0 108.630266l249.210608 236.430577z m0 0"  horiz-adv-x="1024" />

    
    <glyph glyph-name="fuxuankuang" unicode="&#58904;" d="M864 896h-704C70.4 896 0 825.6 0 736v-704C0-57.6 70.4-128 160-128h704c89.6 0 160 70.4 160 160v704C1024 825.6 953.6 896 864 896z m70.4-864c0-38.4-32-64-64-64h-704c-38.4 0-64 32-64 64v704c0 38.4 32 64 64 64h704c38.4 0 64-32 64-64v-704z m0 0M480 217.6c-12.8 0-25.6 6.4-38.4 12.8L275.2 396.8C256 416 256 448 275.2 473.6c19.2 19.2 51.2 19.2 76.8 0l128-128 192 192c19.2 19.2 51.2 19.2 76.8 0 19.2-19.2 19.2-51.2 0-76.8l-230.4-230.4c-12.8-12.8-25.6-12.8-38.4-12.8z m0 0"  horiz-adv-x="1024" />

    
    <glyph glyph-name="qianming02" unicode="&#58913;" d="M211.276121-128c6.39838 0 19.195141 0 25.593521 12.796761l19.195142 31.991902c57.585424 12.796761 147.162749 102.374087 166.35789 134.365988L639.967608 422.260715 460.812957 518.2364210000001l-217.544934-371.106063c-12.796761-25.593522-51.187043-159.95951-31.991902-211.146554l-19.195141-31.991902c-6.39838-12.796761 0-25.593522 6.39838-31.991902h12.796761zM358.43887 543.829943c25.593522-12.796761 51.187043-6.39838 63.983804 12.796761L575.983804 831.757061c12.796761 19.195141 6.39838 44.788663-12.796761 57.585424-19.195141 12.796761-51.187043 6.39838-57.585423-12.796761L345.642109 601.4153670000001c-12.796761-19.195141-6.39838-44.788663 12.796761-57.585424zM665.56113 467.049378l159.95951 275.130358c25.593522 38.390282 0 95.975706-44.788663 121.569228-44.788663 25.593522-108.772467 12.796761-127.967608-25.593522L492.804859 569.4234650000001l172.756271-102.374087z"  horiz-adv-x="1024" />

    
    <glyph glyph-name="riqi" unicode="&#58916;" d="M940.8 800h-140.8v64c0 19.2-12.8 32-32 32s-32-12.8-32-32v-64h-192v64C544 883.2 531.2 896 512 896s-32-12.8-32-32v-64h-192v64C288 883.2 275.2 896 256 896s-32-12.8-32-32v-64H83.2C38.4 800 0 761.6 0 716.8v-755.2c0-25.6 6.4-44.8 25.6-57.6 12.8-25.6 38.4-32 57.6-32h851.2c25.6 0 44.8 6.4 57.6 25.6 19.2 19.2 25.6 38.4 25.6 57.6V716.8c0 25.6-6.4 44.8-25.6 57.6-6.4 19.2-32 25.6-51.2 25.6z m19.2-844.8c0-6.4 0-12.8-6.4-12.8-6.4-6.4-6.4-6.4-12.8-6.4H83.2c-6.4 0-12.8 0-12.8 6.4-6.4 6.4-6.4 6.4-6.4 12.8V716.8c0 12.8 6.4 19.2 19.2 19.2h140.8v-64c0-19.2 12.8-32 32-32s32 12.8 32 32v64h192v-64c0-19.2 12.8-32 32-32s32 12.8 32 32v64h192v-64c0-19.2 12.8-32 32-32s32 12.8 32 32v64h140.8c6.4 0 12.8 0 12.8-6.4 6.4-6.4 6.4-6.4 6.4-12.8v-761.6z m0 0M224 524.8h128v-96h-128V524.8z m0-153.6h128v-96h-128V371.2z m0-166.4h128v-96h-128v96z m224 0h128v-96H448v96z m0 166.4h128v-96H448V371.2z m0 153.6h128v-96H448V524.8z m224-320h128v-96h-128v96z m0 166.4h128v-96h-128V371.2z m0 153.6h128v-96h-128V524.8z m0 0"  horiz-adv-x="1024" />

    
    <glyph glyph-name="riqiqujian" unicode="&#58917;" d="M185.6 710.4H256c12.8 0 19.2 6.4 19.2 19.2V876.8C275.2 889.6 262.4 896 256 896H185.6c-6.4 0-19.2-6.4-19.2-19.2v-147.2c0-12.8 12.8-19.2 19.2-19.2z m582.4 0h70.4c12.8 0 19.2 6.4 19.2 19.2V876.8c0 12.8-6.4 19.2-19.2 19.2H768c-12.8 0-19.2-6.4-19.2-19.2v-147.2c0-12.8 12.8-19.2 19.2-19.2z m0 0M915.2 825.6H896v-96c0-32-25.6-57.6-57.6-57.6H768c-32 0-57.6 25.6-57.6 57.6V825.6H307.2v-96c0-32-25.6-57.6-57.6-57.6h-64c-32 0-57.6 25.6-57.6 57.6V825.6h-19.2C51.2 825.6 0 774.4 0 716.8v-736c0-57.6 51.2-108.8 108.8-108.8h812.8c57.6 0 108.8 51.2 108.8 108.8V716.8c-6.4 57.6-57.6 108.8-115.2 108.8z m38.4-844.8c0-19.2-19.2-38.4-38.4-38.4H108.8c-19.2 0-38.4 19.2-38.4 38.4V518.4H960v-537.6z m0 0"  horiz-adv-x="1030" />

    


  </font>
</defs>
</svg>
